# xmcd
# 
# Track frame offsets:
#     150
#     16478
#     33507
#     50362
#     65582
#     86682
#     106649
# 
# Disc length: 1676
# 
# Revision: 1
# Processed by: cddbd v1.5.2PL0 Copyright (c) Steve Scherf et al.
# Submitted via: fre:ac v1.0.17
# 
DISCID=51068a07
DTITLE=HA:TFELT (예은 of Wonder Girls 원더걸스) - Me? (1st Mini Album)
DYEAR=2014
DGENRE=K-Pop
TTITLE0=Iron Girl feat. 혜림 of Wonder Girls
TTITLE1=Truth
TTITLE2=Ain't Nobody
TTITLE3=Bond feat. Beenzino
TTITLE4=Wherever Together
TTITLE5=Peter Pan
TTITLE6=다은 (Nothing Lasts Forever)
EXTD=JYP Entertainment\nkt Music Co., Ltd.
EXTT0=
EXTT1=
EXTT2=
EXTT3=
EXTT4=
EXTT5=
EXTT6=
PLAYORDER=
